<?xml version="1.0" encoding="iso-8859-1"?>
<!-- Generator: Adobe Illustrator 19.0.0, SVG Export Plug-In . SVG Version: 6.00 Build 0)  -->
<svg version="1.1" id="Capa_1" xmlns="http://www.w3.org/2000/svg" xmlns:xlink="http://www.w3.org/1999/xlink" x="0px" y="0px"
	 viewBox="0 0 480 480" style="enable-background:new 0 0 480 480;" xml:space="preserve">
<g>
	<g>
		<path d="M136,0H8C3.576,0,0,3.584,0,8v128c0,4.416,3.576,8,8,8h128c4.424,0,8-3.584,8-8V8C144,3.584,140.424,0,136,0z M128,128H16
			V16h112V128z"/>
	</g>
</g>
<g>
	<g>
		<path d="M304,0H176c-4.424,0-8,3.584-8,8v128c0,4.416,3.576,8,8,8h128c4.424,0,8-3.584,8-8V8C312,3.584,308.424,0,304,0z M296,128
			H184V16h112V128z"/>
	</g>
</g>
<g>
	<g>
		<path d="M472,0H344c-4.424,0-8,3.584-8,8v128c0,4.416,3.576,8,8,8h128c4.424,0,8-3.584,8-8V8C480,3.584,476.424,0,472,0z M464,128
			H352V16h112V128z"/>
	</g>
</g>
<g>
	<g>
		<path d="M136,168H8c-4.424,0-8,3.584-8,8v128c0,4.416,3.576,8,8,8h128c4.424,0,8-3.584,8-8V176C144,171.584,140.424,168,136,168z
			 M128,296H16V184h112V296z"/>
	</g>
</g>
<g>
	<g>
		<path d="M304,168H176c-4.424,0-8,3.584-8,8v128c0,4.416,3.576,8,8,8h128c4.424,0,8-3.584,8-8V176C312,171.584,308.424,168,304,168
			z M296,296H184V184h112V296z"/>
	</g>
</g>
<g>
	<g>
		<path d="M472,168H344c-4.424,0-8,3.584-8,8v128c0,4.416,3.576,8,8,8h128c4.424,0,8-3.584,8-8V176C480,171.584,476.424,168,472,168
			z M464,296H352V184h112V296z"/>
	</g>
</g>
<g>
	<g>
		<path d="M136,336H8c-4.424,0-8,3.584-8,8v128c0,4.416,3.576,8,8,8h128c4.424,0,8-3.584,8-8V344C144,339.584,140.424,336,136,336z
			 M128,464H16V352h112V464z"/>
	</g>
</g>
<g>
	<g>
		<path d="M304,336H176c-4.424,0-8,3.584-8,8v128c0,4.416,3.576,8,8,8h128c4.424,0,8-3.584,8-8V344C312,339.584,308.424,336,304,336
			z M296,464H184V352h112V464z"/>
	</g>
</g>
<g>
	<g>
		<path d="M472,336H344c-4.424,0-8,3.584-8,8v128c0,4.416,3.576,8,8,8h128c4.424,0,8-3.584,8-8V344C480,339.584,476.424,336,472,336
			z M464,464H352V352h112V464z"/>
	</g>
</g>
<g>
</g>
<g>
</g>
<g>
</g>
<g>
</g>
<g>
</g>
<g>
</g>
<g>
</g>
<g>
</g>
<g>
</g>
<g>
</g>
<g>
</g>
<g>
</g>
<g>
</g>
<g>
</g>
<g>
</g>
</svg>
